<?xml version="1.0" encoding="utf-8"?>
<!-- Generator: Adobe Illustrator 16.0.0, SVG Export Plug-In . SVG Version: 6.00 Build 0)  -->
<!DOCTYPE svg PUBLIC "-//W3C//DTD SVG 1.1//EN" "http://www.w3.org/Graphics/SVG/1.1/DTD/svg11.dtd">
<svg version="1.1" id="Layer_1" xmlns="http://www.w3.org/2000/svg" xmlns:xlink="http://www.w3.org/1999/xlink" x="0px" y="0px"
	 width="252px" height="252px" viewBox="0 0 252 252" enable-background="new 0 0 252 252" xml:space="preserve">
<path fill="#FF6E4A" d="M164.232,59.758v55.901h-38.358V59.733H67.185v19.973h38.321v68.022c0,7.791-1.872,13.633-5.61,17.523
	c-3.741,3.896-8.258,5.841-13.55,5.841c-7.481,0-15.134-4.079-22.958-12.245L51.821,176.37
	c9.896,10.806,21.863,16.205,35.905,16.205c11.161,0,20.31-3.83,27.446-11.494c7.134-7.661,10.702-19.155,10.702-34.481v-10.842
	h38.358l-0.066,56.905h20.493l-0.058-132.905H164.232z"/>
<circle fill="none" stroke="#FF6E4A" stroke-width="5.328" stroke-miterlimit="10" cx="125.705" cy="126.198" r="119.88"/>
<g id="Layer_1_1_">
	
		<image overflow="visible" enable-background="new    " width="1309" height="1118" xlink:href="1B62AC1E9C63882D.png"  transform="matrix(1 0 0 1 -493 -1827)">
	</image>
	<g id="Layer_3">
	</g>
</g>
</svg>
